# xmcd
#
# Track frame offsets:
#	150
#	5543
#	16251
#	23061
#	32019
#	36618
#	46080
#	52550
#	63491
#	73425
#	80081
#	88325
#	92546
#	100535
#	116469
#	123045
#	128663
#	134506
#
# Disc length: 1925 seconds
#
# Revision: 1
# Processed by: cddbd v1.5.2PL0 Copyright (c) Steve Scherf et al.
# Submitted via: audiograbber 1.83.01
#
DISCID=e5078312
DTITLE=Pete Seeger - Essential Pete Seeger
DYEAR=2010
DGENRE=Oldies
TTITLE0=Opening Theme
TTITLE1=Times A Getting Hard
TTITLE2=Empty Pocket Blues
TTITLE3=Mexican Blues
TTITLE4=Jesu Joy Of Mans Desiring
TTITLE5=Duet From Beethovens 7th
TTITLE6=Corale From Beethovens 9th Symphony
TTITLE7=Blue Skys
TTITLE8=Russian Folk Themes and Yodel
TTITLE9=Woody's Rag
TTITLE10=Anitras Dance- Brandy Leave Me Alone
TTITLE11=Cindy
TTITLE12=Oh Liza Poor Girl
TTITLE13=Sally My Dear
TTITLE14=Sally Ann
TTITLE15=The Girl I Left Behind
TTITLE16=Opening Theme (Reprise)
TTITLE17=Ground Hog
EXTD=
EXTT0=
EXTT1=
EXTT2=
EXTT3=
EXTT4=
EXTT5=
EXTT6=
EXTT7=
EXTT8=
EXTT9=
EXTT10=
EXTT11=
EXTT12=
EXTT13=
EXTT14=
EXTT15=
EXTT16=
EXTT17=
PLAYORDER=
